<?xml version="1.0" encoding="UTF-8"?>
<svg xmlns="http://www.w3.org/2000/svg" xmlns:xlink="http://www.w3.org/1999/xlink" width="64px" height="64px" viewBox="0 0 64 64" version="1.1">
<g id="surface1">
<path style=" stroke:none;fill-rule:nonzero;fill:rgb(56.078434%,71.372551%,98.823529%);fill-opacity:1;" d="M 32 0.71875 C 32.375 0.75 32.375 0.75 32.625 1 C 32.664062 1.359375 32.664062 1.359375 32.675781 1.816406 C 32.679688 1.980469 32.6875 2.144531 32.691406 2.308594 C 32.695312 2.484375 32.699219 2.65625 32.703125 2.828125 C 32.707031 3 32.710938 3.175781 32.71875 3.347656 C 32.730469 3.773438 32.742188 4.199219 32.75 4.625 C 32.84375 4.65625 32.9375 4.6875 33.03125 4.71875 C 33.152344 4.761719 33.277344 4.804688 33.402344 4.851562 C 33.523438 4.890625 33.644531 4.933594 33.769531 4.976562 C 34.757812 5.390625 35.328125 6.167969 35.75 7.125 C 36.136719 8.136719 36.101562 9.027344 35.746094 10.042969 C 35.679688 10.242188 35.679688 10.242188 35.609375 10.445312 C 35.570312 10.546875 35.535156 10.644531 35.5 10.75 C 37.207031 12.847656 38.980469 14.882812 40.820312 16.867188 C 40.886719 16.941406 40.953125 17.011719 41.023438 17.089844 C 44.28125 20.605469 47.238281 23.648438 52.289062 23.878906 C 54.472656 23.925781 56.707031 23.734375 58.863281 23.375 C 58.972656 23.359375 59.085938 23.339844 59.203125 23.320312 C 59.410156 23.285156 59.613281 23.246094 59.820312 23.207031 C 60.492188 23.089844 61.027344 23.144531 61.625 23.5 C 62.15625 24.167969 62.199219 24.738281 62.179688 25.570312 C 62.179688 25.671875 62.179688 25.777344 62.183594 25.882812 C 62.175781 26.511719 62.097656 26.957031 61.75 27.5 C 61.210938 28 61.210938 28 60.875 28 C 60.875 38.066406 60.875 48.128906 60.875 58.5 C 61.121094 58.582031 61.371094 58.664062 61.625 58.75 C 62.164062 59.4375 62.203125 60.03125 62.1875 60.882812 C 62.1875 60.992188 62.191406 61.101562 62.195312 61.214844 C 62.1875 62.027344 62.007812 62.496094 61.417969 63.078125 C 61.003906 63.320312 60.621094 63.300781 60.15625 63.296875 C 60.058594 63.296875 59.957031 63.300781 59.855469 63.300781 C 59.523438 63.300781 59.191406 63.300781 58.859375 63.300781 C 58.617188 63.300781 58.378906 63.300781 58.136719 63.300781 C 57.476562 63.304688 56.816406 63.304688 56.152344 63.300781 C 55.441406 63.300781 54.726562 63.304688 54.015625 63.304688 C 52.617188 63.308594 51.21875 63.308594 49.824219 63.308594 C 48.6875 63.308594 47.550781 63.308594 46.417969 63.308594 C 46.089844 63.308594 45.765625 63.308594 45.4375 63.3125 C 45.195312 63.3125 45.195312 63.3125 44.945312 63.3125 C 42.742188 63.3125 40.539062 63.3125 38.339844 63.3125 C 38.253906 63.3125 38.164062 63.3125 38.078125 63.3125 C 37.640625 63.3125 37.203125 63.3125 36.765625 63.3125 C 36.679688 63.3125 36.59375 63.3125 36.503906 63.3125 C 36.328125 63.3125 36.152344 63.3125 35.976562 63.3125 C 33.25 63.3125 30.519531 63.3125 27.792969 63.316406 C 24.726562 63.320312 21.660156 63.324219 18.597656 63.324219 C 16.972656 63.324219 15.351562 63.324219 13.726562 63.328125 C 12.34375 63.332031 10.960938 63.332031 9.582031 63.328125 C 8.875 63.328125 8.171875 63.328125 7.464844 63.328125 C 6.820312 63.332031 6.175781 63.332031 5.527344 63.328125 C 5.292969 63.328125 5.0625 63.328125 4.828125 63.332031 C 4.511719 63.332031 4.191406 63.332031 3.875 63.328125 C 3.738281 63.332031 3.738281 63.332031 3.597656 63.332031 C 2.890625 63.320312 2.605469 63.105469 2.125 62.625 C 1.769531 62.089844 1.828125 61.519531 1.828125 60.898438 C 1.824219 60.789062 1.820312 60.679688 1.820312 60.566406 C 1.816406 59.816406 1.90625 59.347656 2.375 58.75 C 2.621094 58.667969 2.871094 58.585938 3.125 58.5 C 3.125 48.433594 3.125 38.371094 3.125 28 C 2.917969 27.917969 2.710938 27.835938 2.5 27.75 C 1.859375 27.035156 1.847656 26.582031 1.84375 25.65625 C 1.839844 25.542969 1.839844 25.433594 1.835938 25.316406 C 1.832031 24.660156 1.875 24.191406 2.25 23.625 C 2.785156 23.226562 3.183594 23.097656 3.839844 23.1875 C 4.035156 23.222656 4.226562 23.257812 4.417969 23.292969 C 8.484375 23.988281 13.792969 24.785156 17.386719 22.296875 C 19.535156 20.746094 21.386719 18.808594 23.179688 16.867188 C 23.246094 16.792969 23.316406 16.722656 23.386719 16.644531 C 25.152344 14.734375 26.855469 12.769531 28.5 10.75 C 28.464844 10.648438 28.429688 10.546875 28.394531 10.441406 C 28.347656 10.304688 28.300781 10.171875 28.253906 10.03125 C 28.207031 9.898438 28.164062 9.765625 28.117188 9.628906 C 27.972656 9.160156 27.917969 8.859375 28 8.375 C 28.210938 8.0625 28.210938 8.0625 28.5 7.875 C 28.925781 7.894531 29.074219 7.949219 29.375 8.25 C 29.453125 8.546875 29.453125 8.546875 29.515625 8.890625 C 29.535156 9.003906 29.558594 9.117188 29.578125 9.234375 C 29.59375 9.324219 29.609375 9.410156 29.625 9.5 C 30.246094 8.984375 30.796875 8.445312 31.335938 7.84375 C 31.625 7.625 31.625 7.625 31.972656 7.535156 C 32.601562 7.675781 32.929688 8.101562 33.359375 8.5625 C 33.445312 8.652344 33.53125 8.742188 33.621094 8.832031 C 33.832031 9.054688 34.042969 9.277344 34.25 9.5 C 34.589844 8.988281 34.578125 8.597656 34.5 8 C 34.269531 7.261719 33.878906 6.8125 33.25 6.375 C 32.769531 6.128906 32.261719 6.039062 31.734375 5.933594 C 31.5 5.875 31.5 5.875 31.375 5.75 C 31.359375 5.402344 31.355469 5.054688 31.355469 4.707031 C 31.355469 4.601562 31.351562 4.5 31.351562 4.390625 C 31.351562 4.167969 31.351562 3.945312 31.351562 3.726562 C 31.351562 3.382812 31.347656 3.042969 31.347656 2.703125 C 31.347656 2.488281 31.347656 2.273438 31.347656 2.058594 C 31.34375 1.957031 31.34375 1.855469 31.34375 1.75 C 31.347656 0.773438 31.347656 0.773438 32 0.71875 Z M 31.578125 9.640625 C 31.464844 9.753906 31.351562 9.867188 31.234375 9.984375 C 31.121094 10.097656 31.007812 10.210938 30.890625 10.328125 C 30.597656 10.589844 30.597656 10.589844 30.625 10.875 C 31.414062 11.242188 32.019531 11.320312 32.875 11.125 C 33.152344 11.003906 33.152344 11.003906 33.375 10.875 C 33.191406 10.449219 32.953125 10.167969 32.625 9.84375 C 32.539062 9.753906 32.449219 9.667969 32.359375 9.574219 C 31.996094 9.265625 31.933594 9.324219 31.578125 9.640625 Z M 29.5 11.75 C 28.03125 13.214844 26.566406 14.679688 25.097656 16.144531 C 24.417969 16.824219 23.738281 17.503906 23.054688 18.183594 C 22.464844 18.777344 21.871094 19.367188 21.277344 19.960938 C 20.960938 20.277344 20.648438 20.589844 20.332031 20.902344 C 19.984375 21.253906 19.632812 21.601562 19.28125 21.953125 C 19.175781 22.058594 19.074219 22.164062 18.964844 22.269531 C 18.871094 22.367188 18.773438 22.460938 18.675781 22.558594 C 18.550781 22.683594 18.550781 22.683594 18.425781 22.808594 C 18.234375 22.972656 18.234375 22.972656 18.25 23.125 C 27.324219 23.125 36.398438 23.125 45.75 23.125 C 45.144531 22.417969 45.144531 22.417969 44.511719 21.746094 C 44.421875 21.65625 44.332031 21.566406 44.242188 21.476562 C 44.144531 21.378906 44.050781 21.285156 43.949219 21.1875 C 43.847656 21.085938 43.746094 20.980469 43.640625 20.875 C 43.304688 20.539062 42.96875 20.203125 42.628906 19.867188 C 42.394531 19.632812 42.160156 19.398438 41.925781 19.164062 C 41.375 18.613281 40.820312 18.0625 40.269531 17.511719 C 39.640625 16.882812 39.011719 16.253906 38.382812 15.625 C 37.089844 14.332031 35.792969 13.042969 34.5 11.75 C 34.359375 11.816406 34.359375 11.816406 34.214844 11.882812 C 34.027344 11.96875 34.027344 11.96875 33.839844 12.054688 C 33.714844 12.113281 33.59375 12.171875 33.46875 12.230469 C 32.519531 12.632812 31.464844 12.574219 30.5 12.25 C 30.320312 12.167969 30.144531 12.082031 29.96875 11.988281 C 29.878906 11.945312 29.789062 11.898438 29.699219 11.855469 C 29.632812 11.820312 29.566406 11.785156 29.5 11.75 Z M 29.5 11.75 "/>
<path style=" stroke:none;fill-rule:nonzero;fill:rgb(36.470589%,56.862748%,98.823529%);fill-opacity:1;" d="M 32 0.71875 C 32.375 0.75 32.375 0.75 32.625 1 C 32.664062 1.359375 32.664062 1.359375 32.675781 1.816406 C 32.679688 1.980469 32.6875 2.144531 32.691406 2.308594 C 32.695312 2.484375 32.699219 2.65625 32.703125 2.828125 C 32.707031 3 32.710938 3.175781 32.71875 3.347656 C 32.730469 3.773438 32.742188 4.199219 32.75 4.625 C 32.84375 4.65625 32.9375 4.6875 33.03125 4.71875 C 33.152344 4.761719 33.277344 4.804688 33.402344 4.851562 C 33.523438 4.890625 33.644531 4.933594 33.769531 4.976562 C 34.757812 5.390625 35.328125 6.167969 35.75 7.125 C 36.136719 8.136719 36.101562 9.027344 35.746094 10.042969 C 35.679688 10.242188 35.679688 10.242188 35.609375 10.445312 C 35.570312 10.546875 35.535156 10.644531 35.5 10.75 C 37.207031 12.847656 38.980469 14.882812 40.820312 16.867188 C 40.886719 16.941406 40.953125 17.011719 41.023438 17.089844 C 44.28125 20.605469 47.238281 23.648438 52.289062 23.878906 C 54.472656 23.925781 56.707031 23.734375 58.863281 23.375 C 58.972656 23.359375 59.085938 23.339844 59.203125 23.320312 C 59.410156 23.285156 59.613281 23.246094 59.820312 23.207031 C 60.492188 23.089844 61.027344 23.144531 61.625 23.5 C 62.15625 24.167969 62.199219 24.738281 62.179688 25.570312 C 62.179688 25.671875 62.179688 25.777344 62.183594 25.882812 C 62.175781 26.511719 62.097656 26.957031 61.75 27.5 C 61.210938 28 61.210938 28 60.875 28 C 60.875 38.066406 60.875 48.128906 60.875 58.5 C 61.121094 58.582031 61.371094 58.664062 61.625 58.75 C 62.164062 59.4375 62.203125 60.03125 62.1875 60.882812 C 62.1875 60.992188 62.191406 61.101562 62.195312 61.214844 C 62.1875 62.027344 62.007812 62.496094 61.417969 63.078125 C 61.003906 63.320312 60.621094 63.300781 60.15625 63.296875 C 60.058594 63.296875 59.957031 63.300781 59.855469 63.300781 C 59.523438 63.300781 59.191406 63.300781 58.859375 63.300781 C 58.617188 63.300781 58.378906 63.300781 58.136719 63.300781 C 57.476562 63.304688 56.816406 63.304688 56.152344 63.300781 C 55.441406 63.300781 54.726562 63.304688 54.015625 63.304688 C 52.617188 63.308594 51.21875 63.308594 49.824219 63.308594 C 48.6875 63.308594 47.550781 63.308594 46.417969 63.308594 C 46.089844 63.308594 45.765625 63.308594 45.4375 63.3125 C 45.195312 63.3125 45.195312 63.3125 44.945312 63.3125 C 42.742188 63.3125 40.539062 63.3125 38.339844 63.3125 C 38.253906 63.3125 38.164062 63.3125 38.078125 63.3125 C 37.640625 63.3125 37.203125 63.3125 36.765625 63.3125 C 36.679688 63.3125 36.59375 63.3125 36.503906 63.3125 C 36.328125 63.3125 36.152344 63.3125 35.976562 63.3125 C 33.25 63.3125 30.519531 63.3125 27.792969 63.316406 C 24.726562 63.320312 21.660156 63.324219 18.597656 63.324219 C 16.972656 63.324219 15.351562 63.324219 13.726562 63.328125 C 12.34375 63.332031 10.960938 63.332031 9.582031 63.328125 C 8.875 63.328125 8.171875 63.328125 7.464844 63.328125 C 6.820312 63.332031 6.175781 63.332031 5.527344 63.328125 C 5.292969 63.328125 5.0625 63.328125 4.828125 63.332031 C 4.511719 63.332031 4.191406 63.332031 3.875 63.328125 C 3.738281 63.332031 3.738281 63.332031 3.597656 63.332031 C 2.890625 63.320312 2.605469 63.105469 2.125 62.625 C 1.769531 62.089844 1.828125 61.519531 1.828125 60.898438 C 1.824219 60.789062 1.820312 60.679688 1.820312 60.566406 C 1.816406 59.816406 1.90625 59.347656 2.375 58.75 C 2.621094 58.667969 2.871094 58.585938 3.125 58.5 C 3.125 48.433594 3.125 38.371094 3.125 28 C 2.917969 27.917969 2.710938 27.835938 2.5 27.75 C 1.859375 27.035156 1.847656 26.582031 1.84375 25.65625 C 1.839844 25.542969 1.839844 25.433594 1.835938 25.316406 C 1.832031 24.660156 1.875 24.191406 2.25 23.625 C 2.785156 23.226562 3.183594 23.097656 3.839844 23.1875 C 4.035156 23.222656 4.226562 23.257812 4.417969 23.292969 C 8.484375 23.988281 13.792969 24.785156 17.386719 22.296875 C 19.535156 20.746094 21.386719 18.808594 23.179688 16.867188 C 23.246094 16.792969 23.316406 16.722656 23.386719 16.644531 C 25.152344 14.734375 26.855469 12.769531 28.5 10.75 C 28.464844 10.648438 28.429688 10.546875 28.394531 10.441406 C 28.347656 10.304688 28.300781 10.171875 28.253906 10.03125 C 28.207031 9.898438 28.164062 9.765625 28.117188 9.628906 C 27.972656 9.160156 27.917969 8.859375 28 8.375 C 28.210938 8.0625 28.210938 8.0625 28.5 7.875 C 28.925781 7.894531 29.074219 7.949219 29.375 8.25 C 29.453125 8.546875 29.453125 8.546875 29.515625 8.890625 C 29.535156 9.003906 29.558594 9.117188 29.578125 9.234375 C 29.59375 9.324219 29.609375 9.410156 29.625 9.5 C 30.246094 8.984375 30.796875 8.445312 31.335938 7.84375 C 31.625 7.625 31.625 7.625 31.972656 7.535156 C 32.601562 7.675781 32.929688 8.101562 33.359375 8.5625 C 33.445312 8.652344 33.53125 8.742188 33.621094 8.832031 C 33.832031 9.054688 34.042969 9.277344 34.25 9.5 C 34.589844 8.988281 34.578125 8.597656 34.5 8 C 34.269531 7.261719 33.878906 6.8125 33.25 6.375 C 32.769531 6.128906 32.261719 6.039062 31.734375 5.933594 C 31.5 5.875 31.5 5.875 31.375 5.75 C 31.359375 5.402344 31.355469 5.054688 31.355469 4.707031 C 31.355469 4.601562 31.351562 4.5 31.351562 4.390625 C 31.351562 4.167969 31.351562 3.945312 31.351562 3.726562 C 31.351562 3.382812 31.347656 3.042969 31.347656 2.703125 C 31.347656 2.488281 31.347656 2.273438 31.347656 2.058594 C 31.34375 1.957031 31.34375 1.855469 31.34375 1.75 C 31.347656 0.773438 31.347656 0.773438 32 0.71875 Z M 31.578125 9.640625 C 31.464844 9.753906 31.351562 9.867188 31.234375 9.984375 C 31.121094 10.097656 31.007812 10.210938 30.890625 10.328125 C 30.597656 10.589844 30.597656 10.589844 30.625 10.875 C 31.414062 11.242188 32.019531 11.320312 32.875 11.125 C 33.152344 11.003906 33.152344 11.003906 33.375 10.875 C 33.191406 10.449219 32.953125 10.167969 32.625 9.84375 C 32.539062 9.753906 32.449219 9.667969 32.359375 9.574219 C 31.996094 9.265625 31.933594 9.324219 31.578125 9.640625 Z M 29.5 11.75 C 28.03125 13.214844 26.566406 14.679688 25.097656 16.144531 C 24.417969 16.824219 23.738281 17.503906 23.054688 18.183594 C 22.464844 18.777344 21.871094 19.367188 21.277344 19.960938 C 20.960938 20.277344 20.648438 20.589844 20.332031 20.902344 C 19.984375 21.253906 19.632812 21.601562 19.28125 21.953125 C 19.175781 22.058594 19.074219 22.164062 18.964844 22.269531 C 18.871094 22.367188 18.773438 22.460938 18.675781 22.558594 C 18.550781 22.683594 18.550781 22.683594 18.425781 22.808594 C 18.234375 22.972656 18.234375 22.972656 18.25 23.125 C 27.324219 23.125 36.398438 23.125 45.75 23.125 C 45.144531 22.417969 45.144531 22.417969 44.511719 21.746094 C 44.421875 21.65625 44.332031 21.566406 44.242188 21.476562 C 44.144531 21.378906 44.050781 21.285156 43.949219 21.1875 C 43.847656 21.085938 43.746094 20.980469 43.640625 20.875 C 43.304688 20.539062 42.96875 20.203125 42.628906 19.867188 C 42.394531 19.632812 42.160156 19.398438 41.925781 19.164062 C 41.375 18.613281 40.820312 18.0625 40.269531 17.511719 C 39.640625 16.882812 39.011719 16.253906 38.382812 15.625 C 37.089844 14.332031 35.792969 13.042969 34.5 11.75 C 34.359375 11.816406 34.359375 11.816406 34.214844 11.882812 C 34.027344 11.96875 34.027344 11.96875 33.839844 12.054688 C 33.714844 12.113281 33.59375 12.171875 33.46875 12.230469 C 32.519531 12.632812 31.464844 12.574219 30.5 12.25 C 30.320312 12.167969 30.144531 12.082031 29.96875 11.988281 C 29.878906 11.945312 29.789062 11.898438 29.699219 11.855469 C 29.632812 11.820312 29.566406 11.785156 29.5 11.75 Z M 4.375 28 C 4.375 38.066406 4.375 48.128906 4.375 58.5 C 22.609375 58.5 40.839844 58.5 59.625 58.5 C 59.625 48.433594 59.625 38.371094 59.625 28 C 41.390625 28 23.160156 28 4.375 28 Z M 4.375 28 "/>
<path style=" stroke:none;fill-rule:nonzero;fill:rgb(99.607843%,99.607843%,99.607843%);fill-opacity:1;" d="M 3.25 59.75 C 22.226562 59.75 41.199219 59.75 60.75 59.75 C 60.75 60.492188 60.75 61.234375 60.75 62 C 41.773438 62 22.800781 62 3.25 62 C 3.25 61.257812 3.25 60.515625 3.25 59.75 Z M 3.25 59.75 "/>
<path style=" stroke:none;fill-rule:nonzero;fill:rgb(99.607843%,99.607843%,99.607843%);fill-opacity:1;" d="M 3.25 24.5 C 22.226562 24.5 41.199219 24.5 60.75 24.5 C 60.75 25.242188 60.75 25.984375 60.75 26.75 C 41.773438 26.75 22.800781 26.75 3.25 26.75 C 3.25 26.007812 3.25 25.265625 3.25 24.5 Z M 3.25 24.5 "/>
<path style=" stroke:none;fill-rule:nonzero;fill:rgb(36.862746%,56.862748%,98.823529%);fill-opacity:1;" d="M 54.414062 30.585938 C 55.125 30.910156 55.59375 31.359375 55.890625 32.09375 C 56.011719 32.546875 56.03125 32.933594 56.035156 33.40625 C 56.035156 33.492188 56.035156 33.582031 56.035156 33.671875 C 56.035156 33.964844 56.035156 34.261719 56.035156 34.554688 C 56.035156 34.765625 56.039062 34.976562 56.039062 35.1875 C 56.042969 35.761719 56.042969 36.335938 56.042969 36.910156 C 56.042969 37.269531 56.042969 37.628906 56.042969 37.984375 C 56.046875 39.238281 56.046875 40.488281 56.046875 41.742188 C 56.046875 42.90625 56.046875 44.074219 56.054688 45.238281 C 56.054688 46.238281 56.058594 47.242188 56.058594 48.242188 C 56.058594 48.839844 56.058594 49.4375 56.058594 50.039062 C 56.0625 50.601562 56.0625 51.164062 56.0625 51.726562 C 56.0625 51.929688 56.0625 52.136719 56.0625 52.34375 C 56.078125 54.496094 56.078125 54.496094 55.328125 55.3125 C 54.714844 55.875 54.074219 56.054688 53.25 56.03125 C 52.492188 55.9375 51.980469 55.570312 51.5 55 C 51.085938 54.367188 50.9375 53.972656 50.9375 53.199219 C 50.9375 53.113281 50.933594 53.023438 50.933594 52.929688 C 50.933594 52.636719 50.933594 52.339844 50.933594 52.046875 C 50.933594 51.832031 50.933594 51.621094 50.933594 51.40625 C 50.929688 50.832031 50.929688 50.253906 50.933594 49.675781 C 50.933594 49.074219 50.933594 48.46875 50.933594 47.863281 C 50.929688 46.851562 50.933594 45.835938 50.933594 44.820312 C 50.9375 43.648438 50.9375 42.476562 50.933594 41.304688 C 50.929688 40.300781 50.929688 39.292969 50.933594 38.285156 C 50.933594 37.683594 50.933594 37.082031 50.933594 36.480469 C 50.929688 35.917969 50.929688 35.351562 50.933594 34.785156 C 50.933594 34.578125 50.933594 34.371094 50.933594 34.164062 C 50.925781 32.222656 50.925781 32.222656 51.5 31.375 C 51.757812 31.117188 51.757812 31.117188 52.015625 30.945312 C 52.144531 30.855469 52.144531 30.855469 52.273438 30.765625 C 52.914062 30.367188 53.695312 30.375 54.414062 30.585938 Z M 54.414062 30.585938 "/>
<path style=" stroke:none;fill-rule:nonzero;fill:rgb(99.607843%,99.607843%,99.607843%);fill-opacity:1;" d="M 54 31.75 C 54.351562 31.972656 54.5625 32.128906 54.75 32.5 C 54.761719 32.78125 54.765625 33.0625 54.769531 33.34375 C 54.769531 33.429688 54.769531 33.515625 54.769531 33.609375 C 54.769531 33.902344 54.773438 34.195312 54.773438 34.492188 C 54.773438 34.703125 54.773438 34.914062 54.773438 35.125 C 54.777344 35.699219 54.777344 36.273438 54.777344 36.847656 C 54.78125 37.203125 54.78125 37.5625 54.78125 37.921875 C 54.785156 39.042969 54.785156 40.164062 54.785156 41.285156 C 54.789062 42.578125 54.792969 43.871094 54.796875 45.167969 C 54.800781 46.167969 54.800781 47.167969 54.800781 48.167969 C 54.800781 48.765625 54.804688 49.363281 54.808594 49.960938 C 54.808594 50.523438 54.808594 51.085938 54.808594 51.644531 C 54.808594 51.851562 54.808594 52.058594 54.8125 52.265625 C 54.8125 52.546875 54.8125 52.828125 54.8125 53.109375 C 54.8125 53.269531 54.8125 53.425781 54.8125 53.589844 C 54.738281 54.074219 54.59375 54.277344 54.25 54.625 C 53.847656 54.824219 53.433594 54.828125 53 54.75 C 52.632812 54.445312 52.632812 54.445312 52.375 54.125 C 52.332031 54.082031 52.292969 54.042969 52.25 54 C 52.238281 53.722656 52.234375 53.449219 52.230469 53.171875 C 52.230469 53.085938 52.230469 52.996094 52.230469 52.90625 C 52.230469 52.613281 52.226562 52.316406 52.226562 52.023438 C 52.226562 51.8125 52.226562 51.601562 52.226562 51.390625 C 52.222656 50.816406 52.222656 50.242188 52.222656 49.667969 C 52.21875 49.308594 52.21875 48.949219 52.21875 48.589844 C 52.214844 47.46875 52.214844 46.347656 52.214844 45.226562 C 52.210938 43.929688 52.207031 42.636719 52.203125 41.339844 C 52.199219 40.339844 52.199219 39.339844 52.199219 38.339844 C 52.199219 37.738281 52.195312 37.140625 52.191406 36.542969 C 52.191406 35.980469 52.191406 35.417969 52.191406 34.855469 C 52.191406 34.648438 52.191406 34.441406 52.1875 34.238281 C 52.1875 33.953125 52.1875 33.671875 52.1875 33.390625 C 52.1875 33.234375 52.1875 33.074219 52.1875 32.914062 C 52.261719 32.425781 52.40625 32.222656 52.75 31.875 C 53.148438 31.675781 53.566406 31.6875 54 31.75 Z M 54 31.75 "/>
<path style=" stroke:none;fill-rule:nonzero;fill:rgb(99.607843%,99.607843%,99.607843%);fill-opacity:1;" d="M 10.160156 31.660156 C 10.800781 31.6875 11.164062 31.761719 11.625 32.25 C 11.804688 32.613281 11.765625 32.929688 11.769531 33.335938 C 11.769531 33.421875 11.769531 33.511719 11.769531 33.601562 C 11.769531 33.894531 11.773438 34.1875 11.773438 34.480469 C 11.773438 34.6875 11.773438 34.898438 11.773438 35.105469 C 11.777344 35.675781 11.777344 36.246094 11.777344 36.816406 C 11.78125 37.171875 11.78125 37.527344 11.78125 37.886719 C 11.785156 39 11.785156 40.113281 11.785156 41.226562 C 11.789062 42.511719 11.792969 43.796875 11.796875 45.082031 C 11.800781 46.078125 11.800781 47.070312 11.800781 48.0625 C 11.800781 48.65625 11.804688 49.25 11.808594 49.84375 C 11.808594 50.402344 11.808594 50.960938 11.808594 51.519531 C 11.808594 51.726562 11.808594 51.929688 11.8125 52.136719 C 11.8125 52.414062 11.8125 52.695312 11.8125 52.976562 C 11.8125 53.132812 11.8125 53.289062 11.8125 53.449219 C 11.738281 53.957031 11.566406 54.226562 11.25 54.625 C 10.851562 54.824219 10.433594 54.8125 10 54.75 C 9.648438 54.527344 9.4375 54.371094 9.25 54 C 9.238281 53.71875 9.230469 53.4375 9.230469 53.160156 C 9.230469 53.070312 9.230469 52.984375 9.230469 52.894531 C 9.226562 52.597656 9.226562 52.304688 9.226562 52.011719 C 9.226562 51.800781 9.222656 51.589844 9.222656 51.378906 C 9.21875 50.683594 9.21875 49.992188 9.214844 49.296875 C 9.214844 49.058594 9.214844 48.820312 9.214844 48.582031 C 9.210938 47.59375 9.207031 46.601562 9.207031 45.609375 C 9.207031 44.1875 9.203125 42.765625 9.195312 41.34375 C 9.1875 40.34375 9.1875 39.34375 9.1875 38.34375 C 9.1875 37.746094 9.183594 37.152344 9.179688 36.554688 C 9.175781 35.992188 9.175781 35.429688 9.175781 34.867188 C 9.175781 34.660156 9.175781 34.457031 9.171875 34.25 C 9.171875 33.96875 9.171875 33.6875 9.175781 33.40625 C 9.171875 33.246094 9.171875 33.089844 9.171875 32.925781 C 9.277344 32.34375 9.558594 31.851562 10.160156 31.660156 Z M 10.160156 31.660156 "/>
<path style=" stroke:none;fill-rule:nonzero;fill:rgb(99.607843%,99.607843%,99.607843%);fill-opacity:1;" d="M 32.5 31.75 C 32.851562 31.972656 33.0625 32.128906 33.25 32.5 C 33.261719 32.777344 33.265625 33.058594 33.265625 33.335938 C 33.269531 33.425781 33.269531 33.511719 33.269531 33.601562 C 33.269531 33.894531 33.269531 34.1875 33.269531 34.480469 C 33.269531 34.691406 33.269531 34.898438 33.273438 35.109375 C 33.273438 35.679688 33.273438 36.25 33.273438 36.820312 C 33.273438 37.175781 33.277344 37.535156 33.277344 37.890625 C 33.277344 39.003906 33.28125 40.117188 33.28125 41.230469 C 33.28125 42.519531 33.28125 43.804688 33.285156 45.09375 C 33.289062 46.085938 33.289062 47.082031 33.289062 48.074219 C 33.289062 48.667969 33.292969 49.265625 33.292969 49.859375 C 33.296875 50.417969 33.296875 50.976562 33.292969 51.535156 C 33.292969 51.738281 33.296875 51.945312 33.296875 52.148438 C 33.296875 52.429688 33.296875 52.710938 33.296875 52.988281 C 33.296875 53.148438 33.296875 53.304688 33.296875 53.464844 C 33.246094 53.914062 33.148438 54.144531 32.875 54.5 C 32.414062 54.808594 32.035156 54.835938 31.5 54.75 C 31.070312 54.484375 30.910156 54.355469 30.75 53.875 C 30.738281 53.589844 30.734375 53.308594 30.730469 53.023438 C 30.730469 52.933594 30.730469 52.847656 30.730469 52.757812 C 30.730469 52.464844 30.726562 52.171875 30.726562 51.878906 C 30.726562 51.671875 30.726562 51.460938 30.726562 51.25 C 30.722656 50.679688 30.722656 50.109375 30.722656 49.542969 C 30.71875 49.183594 30.71875 48.828125 30.71875 48.472656 C 30.714844 47.359375 30.714844 46.246094 30.714844 45.132812 C 30.710938 43.847656 30.707031 42.5625 30.703125 41.273438 C 30.699219 40.28125 30.699219 39.289062 30.699219 38.292969 C 30.699219 37.699219 30.695312 37.105469 30.691406 36.511719 C 30.691406 35.953125 30.691406 35.398438 30.691406 34.839844 C 30.691406 34.632812 30.691406 34.429688 30.6875 34.222656 C 30.6875 33.945312 30.6875 33.664062 30.6875 33.382812 C 30.6875 33.226562 30.6875 33.070312 30.6875 32.910156 C 30.761719 32.425781 30.910156 32.21875 31.25 31.875 C 31.648438 31.675781 32.066406 31.6875 32.5 31.75 Z M 32.5 31.75 "/>
<path style=" stroke:none;fill-rule:nonzero;fill:rgb(99.607843%,99.607843%,99.607843%);fill-opacity:1;" d="M 21.75 31.75 C 22.101562 31.972656 22.3125 32.128906 22.5 32.5 C 22.511719 32.777344 22.515625 33.058594 22.519531 33.335938 C 22.519531 33.421875 22.519531 33.511719 22.519531 33.601562 C 22.519531 33.894531 22.523438 34.1875 22.523438 34.480469 C 22.523438 34.6875 22.523438 34.898438 22.523438 35.105469 C 22.527344 35.675781 22.527344 36.246094 22.527344 36.816406 C 22.53125 37.171875 22.53125 37.527344 22.53125 37.886719 C 22.535156 39 22.535156 40.113281 22.535156 41.226562 C 22.539062 42.511719 22.542969 43.796875 22.546875 45.082031 C 22.550781 46.078125 22.550781 47.070312 22.550781 48.0625 C 22.550781 48.65625 22.554688 49.25 22.558594 49.84375 C 22.558594 50.402344 22.558594 50.960938 22.558594 51.519531 C 22.558594 51.726562 22.558594 51.929688 22.5625 52.136719 C 22.5625 52.414062 22.5625 52.695312 22.5625 52.976562 C 22.5625 53.132812 22.5625 53.289062 22.5625 53.449219 C 22.488281 53.957031 22.316406 54.226562 22 54.625 C 21.601562 54.824219 21.183594 54.8125 20.75 54.75 C 20.398438 54.527344 20.1875 54.371094 20 54 C 19.988281 53.71875 19.984375 53.4375 19.980469 53.15625 C 19.980469 53.070312 19.980469 52.984375 19.980469 52.890625 C 19.980469 52.597656 19.976562 52.304688 19.976562 52.007812 C 19.976562 51.796875 19.976562 51.585938 19.976562 51.375 C 19.972656 50.800781 19.972656 50.226562 19.972656 49.652344 C 19.96875 49.296875 19.96875 48.9375 19.96875 48.578125 C 19.964844 47.457031 19.964844 46.335938 19.964844 45.214844 C 19.960938 43.921875 19.957031 42.628906 19.953125 41.332031 C 19.949219 40.332031 19.949219 39.332031 19.949219 38.332031 C 19.949219 37.734375 19.945312 37.136719 19.941406 36.539062 C 19.941406 35.976562 19.941406 35.414062 19.941406 34.855469 C 19.941406 34.648438 19.941406 34.441406 19.9375 34.234375 C 19.9375 33.953125 19.9375 33.671875 19.9375 33.390625 C 19.9375 33.230469 19.9375 33.074219 19.9375 32.910156 C 20.011719 32.425781 20.15625 32.222656 20.5 31.875 C 20.898438 31.675781 21.316406 31.6875 21.75 31.75 Z M 21.75 31.75 "/>
<path style=" stroke:none;fill-rule:nonzero;fill:rgb(99.607843%,99.607843%,99.607843%);fill-opacity:1;" d="M 43.25 31.75 C 43.601562 31.972656 43.8125 32.128906 44 32.5 C 44.011719 32.777344 44.015625 33.058594 44.015625 33.335938 C 44.019531 33.425781 44.019531 33.511719 44.019531 33.601562 C 44.019531 33.894531 44.019531 34.1875 44.019531 34.480469 C 44.019531 34.691406 44.019531 34.898438 44.023438 35.109375 C 44.023438 35.679688 44.023438 36.25 44.023438 36.820312 C 44.023438 37.175781 44.027344 37.535156 44.027344 37.890625 C 44.027344 39.003906 44.03125 40.117188 44.03125 41.230469 C 44.03125 42.519531 44.03125 43.804688 44.035156 45.09375 C 44.039062 46.085938 44.039062 47.082031 44.039062 48.074219 C 44.039062 48.667969 44.042969 49.265625 44.042969 49.859375 C 44.046875 50.417969 44.046875 50.976562 44.042969 51.535156 C 44.042969 51.738281 44.046875 51.945312 44.046875 52.148438 C 44.046875 52.429688 44.046875 52.710938 44.046875 52.988281 C 44.046875 53.148438 44.046875 53.304688 44.046875 53.464844 C 43.996094 53.914062 43.898438 54.144531 43.625 54.5 C 43.167969 54.804688 42.78125 54.855469 42.25 54.75 C 41.914062 54.476562 41.691406 54.261719 41.5 53.875 C 41.488281 53.597656 41.484375 53.316406 41.480469 53.039062 C 41.480469 52.949219 41.480469 52.863281 41.480469 52.773438 C 41.480469 52.480469 41.476562 52.1875 41.476562 51.894531 C 41.476562 51.683594 41.476562 51.476562 41.476562 51.265625 C 41.472656 50.695312 41.472656 50.125 41.472656 49.554688 C 41.46875 49.199219 41.46875 48.839844 41.46875 48.484375 C 41.464844 47.371094 41.464844 46.257812 41.464844 45.144531 C 41.460938 43.855469 41.457031 42.570312 41.453125 41.28125 C 41.449219 40.289062 41.449219 39.292969 41.449219 38.300781 C 41.449219 37.707031 41.445312 37.109375 41.441406 36.515625 C 41.441406 35.957031 41.441406 35.398438 41.441406 34.839844 C 41.441406 34.636719 41.441406 34.429688 41.4375 34.226562 C 41.4375 33.945312 41.4375 33.664062 41.4375 33.386719 C 41.4375 33.226562 41.4375 33.070312 41.4375 32.910156 C 41.511719 32.425781 41.660156 32.21875 42 31.875 C 42.398438 31.675781 42.816406 31.6875 43.25 31.75 Z M 43.25 31.75 "/>
</g>
</svg>
