<?xml version="1.0" encoding="UTF-8"?>
<svg xmlns="http://www.w3.org/2000/svg" xmlns:xlink="http://www.w3.org/1999/xlink" width="50px" height="50px" viewBox="0 0 50 50" version="1.1">
<g id="surface1">
<path style=" stroke:none;fill-rule:nonzero;fill:rgb(0%,0%,0%);fill-opacity:1;" d="M 22.851562 10.550781 C 22.101562 11 21.949219 11.648438 22.050781 14.648438 L 22.148438 18.25 L 16.300781 22.398438 L 10.449219 26.601562 L 10.601562 28.648438 C 10.75 30.648438 10.800781 30.75 12.25 30.601562 C 13.050781 30.5 14.300781 30.101562 15 29.699219 C 16.898438 28.648438 21 27 21.75 27 C 22.199219 27 22.5 27.75 22.601562 29.101562 C 22.75 31.101562 22.601562 31.351562 20.75 32.601562 C 17.550781 34.75 16.5 35.949219 16.5 37.398438 C 16.550781 39.601562 17.648438 40.699219 19.601562 40.300781 C 23.898438 39.398438 27.300781 39.25 29.148438 39.949219 C 30.851562 40.601562 31.101562 40.601562 31.75 39.699219 C 32.5 38.699219 32.800781 35.5 32.148438 35.5 C 31.898438 35.5 31.101562 34.898438 30.300781 34.199219 L 28.898438 32.949219 L 30.050781 31.699219 C 31 30.648438 31.550781 30.449219 32.949219 30.699219 C 34.5 30.949219 34.550781 30.898438 33.699219 30.25 C 32.449219 29.300781 33.398438 29.300781 35 30.25 C 36.550781 31.148438 38.300781 31.199219 38.648438 30.351562 C 39.25 28.75 38.351562 26.449219 36.398438 24.949219 C 34.648438 23.550781 34.5 23.199219 34.800781 21.800781 C 35.148438 20.25 36.5 16.101562 37.25 14.300781 C 37.550781 13.550781 37.5 13.449219 37 13.75 C 36.550781 14.050781 36.449219 13.949219 36.75 13.5 C 37.050781 13 37.351562 13.148438 38.050781 14.050781 C 39.601562 16.101562 39.75 14.601562 38.199219 12.351562 C 36.75 10.351562 35 9.300781 35 10.5 C 35 10.800781 35.25 10.898438 35.601562 10.699219 C 35.949219 10.449219 36 10.550781 35.800781 10.949219 C 35.550781 11.300781 35.25 11.449219 35.101562 11.300781 C 34.648438 10.800781 32.5 13.101562 32.5 14.101562 C 32.5 15.148438 33.050781 15.25 33.898438 14.398438 C 34.800781 13.5 34.648438 14.851562 33.5 18.699219 C 32.800781 20.949219 32.25 21.898438 31.851562 21.699219 C 31.5 21.5 30.300781 20.699219 29.148438 19.898438 L 27 18.449219 L 27 15.050781 C 27 10.648438 25.5 9 22.851562 10.550781 Z M 25.199219 11.398438 C 25.300781 11.601562 25 11.800781 24.5 11.800781 C 24 11.800781 23.699219 11.601562 23.800781 11.398438 C 23.949219 11.199219 24.25 11 24.5 11 C 24.75 11 25.050781 11.199219 25.199219 11.398438 Z M 25.351562 12.800781 C 25.199219 12.949219 24.75 13 24.398438 12.851562 C 24 12.699219 24.148438 12.550781 24.699219 12.550781 C 25.25 12.5 25.550781 12.648438 25.351562 12.800781 Z M 25.648438 17.601562 C 25.949219 20.25 27 21.699219 29.800781 23.300781 C 30.601562 23.75 30.648438 24 30.148438 25.148438 C 29.601562 26.351562 29.398438 26.449219 28.300781 25.898438 C 27.300781 25.5 26.851562 25.5 26.199219 26.050781 C 25.550781 26.550781 25.449219 27.449219 25.601562 30.351562 C 25.75 33.449219 25.648438 34 25 33.898438 C 24.25 33.75 23.75 32.101562 23.25 27.851562 C 23.050781 26.351562 22.699219 25.5 22.25 25.5 C 21.898438 25.5 20.148438 26.148438 18.398438 26.949219 C 16.648438 27.699219 14.648438 28.550781 13.949219 28.699219 L 12.75 29.050781 L 14 28 C 14.699219 27.398438 16.75 25.949219 18.550781 24.75 C 22.550781 22.148438 23.5 20.898438 23.5 18.351562 C 23.5 16.300781 24.300781 14.300781 24.949219 14.699219 C 25.199219 14.851562 25.5 16.148438 25.648438 17.601562 Z M 29.300781 21.351562 C 31.25 22.601562 32.050781 23.5 31.199219 23.5 C 30.949219 23.5 27.949219 21.398438 26.800781 20.398438 C 25.699219 19.5 27.300781 20.101562 29.300781 21.351562 Z M 17.25 24.5 C 17.101562 24.800781 16.199219 25.351562 15.351562 25.800781 C 13.550781 26.75 13.800781 26.25 15.851562 24.949219 C 17.550781 23.898438 17.648438 23.851562 17.25 24.5 Z M 38 27.75 C 37.949219 29.300781 37.148438 29.601562 35.25 28.800781 C 33.75 28.148438 33.449219 27.851562 33.898438 27.398438 C 34.351562 26.949219 34.851562 27 36 27.648438 C 37.851562 28.800781 37.949219 28.351562 36.148438 26.699219 L 34.75 25.398438 L 36.398438 26.300781 C 37.25 26.800781 38 27.449219 38 27.75 Z M 12 27.75 C 11.648438 28.199219 11.25 28.398438 11.050781 28.25 C 10.898438 28.101562 11.101562 27.75 11.5 27.5 C 12.550781 26.800781 12.699219 26.898438 12 27.75 Z M 26.351562 29.601562 C 26.25 30.25 26.148438 29.851562 26.148438 28.75 C 26.101562 27.648438 26.199219 27.148438 26.351562 27.601562 C 26.449219 28.101562 26.449219 29 26.351562 29.601562 Z M 28 27.5 C 28 27.75 27.898438 28 27.800781 28 C 27.648438 28 27.398438 27.75 27.25 27.5 C 27.101562 27.199219 27.199219 27 27.449219 27 C 27.75 27 28 27.199219 28 27.5 Z M 28 27.5 "/>
</g>
</svg>
